<svg xmlns="http://www.w3.org/2000/svg" xmlns:xlink="http://www.w3.org/1999/xlink" viewBox="0 0 274.15 60.22">
	<defs>
		<style>.logo{fill:url(#a);}.text{fill:#1d1d1b;}</style>
		<linearGradient id="a" y1="30.11" x2="60.22" y2="30.11" gradientUnits="userSpaceOnUse">
			<stop offset="0" stop-color="#00baec"/>
			<stop offset="0.06" stop-color="#08b1e5"/>
			<stop offset="0.35" stop-color="#2a87c4"/>
			<stop offset="0.62" stop-color="#4368ad"/>
			<stop offset="0.84" stop-color="#53569e"/>
			<stop offset="1" stop-color="#584f99"/>
		</linearGradient>
	</defs>
	<path class="logo" d="M30.11,0A30.11,30.11,0,0,0,0,30.11,30.11,30.11,0,0,0,30.12,60.22a6.68,6.68,0,0,0,0-13.35A16.76,16.76,0,1,1,46.87,30.11V49.79a6.68,6.68,0,0,0,11.4,4.72,6.62,6.62,0,0,0,1.95-4.72V30.11A30.15,30.15,0,0,0,30.11,0Z"/>
	<path class="text" d="M88.63,22.05a19.09,19.09,0,1,0,0,38.17,3.07,3.07,0,1,0,0-6.14,12.94,12.94,0,1,1,12.94-12.94V54.58a3.08,3.08,0,0,0,3.07,3.08,3,3,0,0,0,2.17-.9h0a3.05,3.05,0,0,0,.9-2.18V41.14A19.11,19.11,0,0,0,88.63,22.05Z"/>
	<path class="text" d="M178.1,22.05a19.09,19.09,0,1,0,0,38.17,3.07,3.07,0,1,0,0-6.14A12.94,12.94,0,1,1,191,41.14V54.58a3.08,3.08,0,1,0,6.15,0V41.14A19.11,19.11,0,0,0,178.1,22.05Z"/>
	<path class="text" d="M133.37,54.08a12.94,12.94,0,0,1-12.94-12.94,1.79,1.79,0,0,0,0-.36V35.14h3.15a3.08,3.08,0,0,0,3.07-3.08A3.07,3.07,0,0,0,123.54,29h-3.15V24.25a3.08,3.08,0,0,0-6.15,0V41.14a1.68,1.68,0,0,0,.06.45,19.06,19.06,0,0,0,19.07,18.63,3.07,3.07,0,0,0,0-6.14Z"/>
	<path class="text" d="M157.45,54.08a12.92,12.92,0,0,1-12.93-12.94,1.79,1.79,0,0,0,0-.36V24.25a3.08,3.08,0,0,0-6.15,0V41.14a2.22,2.22,0,0,0,0,.45,19.08,19.08,0,0,0,19.07,18.63,3.07,3.07,0,1,0,0-6.14Z"/>
	<path class="text" d="M222.75,41.58a15.74,15.74,0,0,0-6.6-4.46l-3.59-1.48c-2.43-1-3.66-2.29-3.66-3.85a3.55,3.55,0,0,1,1.35-2.85,5.14,5.14,0,0,1,3.47-1.18,5.59,5.59,0,0,1,2.28.42A4.13,4.13,0,0,1,217.88,30c.15.23.3.47.49.72a3.07,3.07,0,0,0,4.29.68A3,3,0,0,0,223.9,29l-.32-1.49a1.73,1.73,0,0,0-.24-.47c-.17-.24-.35-.46-.54-.68l-.19-.24c-.27-.34-.55-.65-.83-.95l-.29-.29a10.64,10.64,0,0,0-7.72-3.15,12.09,12.09,0,0,0-6.48,1.75,10.46,10.46,0,0,0-1.53,1.11,9.15,9.15,0,0,0-3.26,7.13c0,4.24,2.51,7.37,7.68,9.55l3.46,1.44a14.55,14.55,0,0,1,2.28,1.2,7,7,0,0,1,1.5,1.29,4.32,4.32,0,0,1,.83,1.47,5.65,5.65,0,0,1,.28,1.79,5.53,5.53,0,0,1-1.56,4,5.28,5.28,0,0,1-3.92,1.58,6.12,6.12,0,0,1-4.89-2.47,17.06,17.06,0,0,1-1.44-3.44A3.1,3.1,0,0,0,203,46a3.07,3.07,0,0,0-2.18,3.76,19,19,0,0,0,1.39,3.66,12,12,0,0,0,1.51,2.49,10.15,10.15,0,0,0,1.12,1.23,11.53,11.53,0,0,0,8,2.89,13.08,13.08,0,0,0,3.87-.57,11.6,11.6,0,0,0,4.72-2.82,11.48,11.48,0,0,0,3.45-8.53A10.25,10.25,0,0,0,222.75,41.58Z"/>
	<path class="text" d="M244.26,56.32a5.73,5.73,0,0,1-1.79,1.13,6,6,0,0,1-3.78.17,5.28,5.28,0,0,1-1.45-.64,6,6,0,0,1-2-2.1,5.87,5.87,0,0,1-.55-4.5,6.33,6.33,0,0,1,.66-1.47,6.1,6.1,0,0,1,2.08-2,5.78,5.78,0,0,1,2.89-.76,5.93,5.93,0,0,1,2,.34,6.87,6.87,0,0,1,1.71,1l.35.28.32-.32.93-.95.36-.39-.41-.34a8.33,8.33,0,0,0-2.39-1.39,8.14,8.14,0,0,0-6.87.56,8.23,8.23,0,0,0-2.9,2.81,8.07,8.07,0,0,0-.92,2,8.67,8.67,0,0,0-.31,2.29,8,8,0,0,0,1.06,4A8.37,8.37,0,0,0,236,59a7.69,7.69,0,0,0,2,.89,7.79,7.79,0,0,0,2.27.33,8,8,0,0,0,3-.59A7.82,7.82,0,0,0,245.88,58l.38-.36L244.61,56Z"/>
	<path class="text" d="M261.21,44.18a.76.76,0,0,0-.82.18q-3.37,3.41-5.16,5.16l-5.34-5.33a.69.69,0,0,0-.57-.29A.9.9,0,0,0,249,44a.75.75,0,0,0-.44.69V59.46a.75.75,0,0,0,.76.76h.78a.74.74,0,0,0,.54-.2.76.76,0,0,0,.23-.54v-11l3.88,3.87a.77.77,0,0,0,1-.05c1.53-1.52,2.72-2.73,3.59-3.61V59.42a.68.68,0,0,0,.23.53.76.76,0,0,0,.54.23h.8a.76.76,0,0,0,.54-.23.73.73,0,0,0,.21-.53V44.9A.75.75,0,0,0,261.21,44.18Z"/>
	<path class="text" d="M274.13,55.55a5.72,5.72,0,0,0-.35-1.67,4.18,4.18,0,0,0-1.91-2.1c-.9-.51-1.86-1-2.86-1.47l-1.15-.55a7.92,7.92,0,0,1-.83-.47,1.41,1.41,0,0,1-.3-.3,1.62,1.62,0,0,1-.15-.39,1.7,1.7,0,0,1,0-.78,3.07,3.07,0,0,0,.09-.38.47.47,0,0,0,.06-.15,1.85,1.85,0,0,1,.14-.19,2.3,2.3,0,0,1,.63-.51,2.53,2.53,0,0,1,1.2-.33,3.77,3.77,0,0,1,2,.28,8,8,0,0,1,1.16.6.72.72,0,0,0,1-.1l.27-.31.22-.27a.63.63,0,0,0,.21-.54.71.71,0,0,0-.29-.59,12,12,0,0,0-1.66-.89,6.11,6.11,0,0,0-3-.45,4.77,4.77,0,0,0-2.35.71A5.24,5.24,0,0,0,265,45.78a2.75,2.75,0,0,0-.34.55,2.24,2.24,0,0,0-.12.29c0,.05-.06.22-.14.51a4.73,4.73,0,0,0-.11,1.06,3.56,3.56,0,0,0,.35,1.72,3.22,3.22,0,0,0,1.1,1.25,7.06,7.06,0,0,0,1.06.63l1.25.6.82.38.83.42a14.34,14.34,0,0,1,1.34.81c.43.31.56.53.59.64a2.62,2.62,0,0,1,.13,2.1,1.86,1.86,0,0,1-.79.83,7.46,7.46,0,0,1-2.26.38,6,6,0,0,1-3.17-1.07.78.78,0,0,0-.67-.1.86.86,0,0,0-.4.31c-.2.3-.35.53-.41.65a.77.77,0,0,0-.12.4v.16a.76.76,0,0,0,.33.5,12.63,12.63,0,0,0,2,1,8.41,8.41,0,0,0,2,.43l.29,0h.31a7.37,7.37,0,0,0,1.4-.13,9.36,9.36,0,0,0,1.4-.37,3.77,3.77,0,0,0,1.47-1,3.63,3.63,0,0,0,.81-1.6,4.94,4.94,0,0,0,.13-1.17A2.55,2.55,0,0,0,274.13,55.55Z"/>
</svg>